<svg width="25" height="25" viewBox="0 0 25 25" fill="none" xmlns="http://www.w3.org/2000/svg">
<g clip-path="url(#clip0_16_9725)">
<path d="M25 12.5C25 19.3958 19.3958 25 12.5 25C5.60417 25 0 19.3958 0 12.5C0 5.60417 5.60417 0 12.5 0C13.2604 0 14.0312 0.0729167 14.7708 0.208333C15.3333 0.3125 15.7083 0.854167 15.6042 1.41667C15.5 1.97917 14.9583 2.35417 14.3958 2.25C13.7812 2.13542 13.1354 2.08333 12.5 2.08333C6.76042 2.08333 2.08333 6.76042 2.08333 12.5C2.08333 18.2396 6.76042 22.9167 12.5 22.9167C18.2396 22.9167 22.9167 18.2396 22.9167 12.5C22.9167 11.8646 22.8542 11.2292 22.75 10.6042C22.6458 10.0417 23.0208 9.5 23.5833 9.39583C24.1562 9.29167 24.6875 9.66667 24.7917 10.2292C24.9271 10.9687 25 11.7396 25 12.5ZM13.3958 6.3125C13.9687 6.39583 14.4896 6 14.5729 5.42708C14.6562 4.85417 14.2604 4.33333 13.6875 4.25C13.2917 4.19792 12.8958 4.16667 12.5 4.16667C7.90625 4.16667 4.16667 7.90625 4.16667 12.5C4.16667 17.0938 7.90625 20.8333 12.5 20.8333C17.0938 20.8333 20.8333 17.0938 20.8333 12.5C20.8333 12.1042 20.8021 11.7083 20.75 11.3125C20.6667 10.7396 20.1458 10.3438 19.5729 10.4271C19 10.5104 18.6042 11.0312 18.6875 11.6042C18.7292 11.8958 18.75 12.1979 18.75 12.5C18.75 15.9479 15.9479 18.75 12.5 18.75C9.05208 18.75 6.25 15.9479 6.25 12.5C6.25 9.05208 9.05208 6.25 12.5 6.25C12.8021 6.25 13.1042 6.27083 13.3958 6.3125ZM11.1979 9.47917C10.8125 9.05208 10.1562 9.01042 9.72917 9.39583C8.84375 10.1875 8.34375 11.3229 8.34375 12.5C8.34375 14.8021 10.2083 16.6667 12.5104 16.6667C13.6979 16.6667 14.8229 16.1562 15.6146 15.2812C16 14.8542 15.9583 14.1979 15.5312 13.8125C15.1042 13.4271 14.4479 13.4688 14.0625 13.8958C13.6667 14.3333 13.1042 14.5938 12.5104 14.5938C11.3646 14.5938 10.4271 13.6562 10.4271 12.5104C10.4271 11.9167 10.6771 11.3542 11.125 10.9583C11.5521 10.5729 11.5938 9.91667 11.2083 9.48958L11.1979 9.47917ZM12.8125 10.7292C12.4062 11.1354 12.4062 11.7917 12.8125 12.1979C13.0208 12.4062 13.2812 12.5 13.5521 12.5C13.8229 12.5 14.0833 12.3958 14.2917 12.1979L19.1979 7.29167H21.8958C22.1771 7.29167 22.4375 7.17708 22.6354 6.98958L24.7187 4.90625C25.0208 4.60417 25.1042 4.15625 24.9479 3.77083C24.7917 3.38542 24.4062 3.125 23.9896 3.125H21.9062V1.04167C21.9062 0.625 21.6562 0.239583 21.2604 0.0833333C20.8646 -0.0833333 20.4271 0.0104167 20.125 0.3125L18.0417 2.39583C17.8437 2.59375 17.7396 2.85417 17.7396 3.13542V5.83333L12.8333 10.7396L12.8125 10.7292Z" fill="#00071E"/>
</g>
<defs>
<clipPath id="clip0_16_9725">
<rect width="25" height="25" fill="white"/>
</clipPath>
</defs>
</svg>
