<svg width="25" height="25" viewBox="0 0 25 25" fill="none" xmlns="http://www.w3.org/2000/svg">
<g clip-path="url(#clip0_16_9720)">
<path d="M17.1875 0C12.8062 0 9.375 2.05937 9.375 4.6875V7.38229C8.87187 7.32292 8.34896 7.29167 7.8125 7.29167C3.43125 7.29167 0 9.35104 0 11.9792V20.3125C0 22.9406 3.43125 25 7.8125 25C11.3615 25 14.2875 23.649 15.2708 21.7385C15.8937 21.8292 16.5354 21.875 17.1875 21.875C21.5687 21.875 25 19.8156 25 17.1875V4.6875C25 2.05937 21.5687 0 17.1875 0ZM22.9167 13.0208C22.9167 14.25 20.4667 15.625 17.1875 15.625C16.6542 15.625 16.1312 15.5885 15.625 15.5177V13.451C16.1354 13.5104 16.6583 13.5417 17.1875 13.5417C19.4729 13.5417 21.5 12.9812 22.9167 12.0719V13.0208ZM2.08333 15.1969C3.5 16.1062 5.52708 16.6667 7.8125 16.6667C10.0979 16.6667 12.125 16.1062 13.5417 15.1969V16.1458C13.5417 17.375 11.0917 18.75 7.8125 18.75C4.53333 18.75 2.08333 17.375 2.08333 16.1458V15.1969ZM22.9167 8.85417C22.9167 10.0833 20.4667 11.4583 17.1875 11.4583C16.6302 11.4583 16.0833 11.4187 15.5562 11.3417C15.3552 10.4177 14.7229 9.5875 13.7792 8.92187C14.8042 9.21354 15.9583 9.375 17.1875 9.375C19.4729 9.375 21.5 8.81458 22.9167 7.90521V8.85417ZM17.1875 2.08333C20.4667 2.08333 22.9167 3.45833 22.9167 4.6875C22.9167 5.91667 20.4667 7.29167 17.1875 7.29167C13.9083 7.29167 11.4583 5.91667 11.4583 4.6875C11.4583 3.45833 13.9083 2.08333 17.1875 2.08333ZM7.8125 9.375C11.0917 9.375 13.5417 10.75 13.5417 11.9792C13.5417 13.2083 11.0917 14.5833 7.8125 14.5833C4.53333 14.5833 2.08333 13.2083 2.08333 11.9792C2.08333 10.75 4.53333 9.375 7.8125 9.375ZM7.8125 22.9167C4.53333 22.9167 2.08333 21.5417 2.08333 20.3125V19.3635C3.5 20.2729 5.52708 20.8333 7.8125 20.8333C10.0979 20.8333 12.125 20.2729 13.5417 19.3635V20.3125C13.5417 21.5417 11.0917 22.9167 7.8125 22.9167ZM17.1875 19.7917C16.6542 19.7917 16.1312 19.7552 15.625 19.6844V17.6177C16.1354 17.6771 16.6583 17.7083 17.1875 17.7083C19.4729 17.7083 21.5 17.1479 22.9167 16.2385V17.1875C22.9167 18.4167 20.4667 19.7917 17.1875 19.7917Z" fill="#00071E"/>
</g>
<defs>
<clipPath id="clip0_16_9720">
<rect width="25" height="25" fill="white"/>
</clipPath>
</defs>
</svg>
