<svg width="822" height="182" viewBox="0 0 822 182" fill="none" xmlns="http://www.w3.org/2000/svg">
<path d="M356.653 94.2524C355.459 104.311 350.768 112.069 342.581 117.525C334.479 122.98 323.478 125.708 309.577 125.708C299.087 125.708 289.877 124.088 281.945 120.849C274.099 117.61 267.959 112.793 263.524 106.4C259.175 100.007 257 92.1639 257 82.8721C257 73.5803 259.175 65.695 263.524 59.2163C267.959 52.7377 274.099 47.8786 281.945 44.6393C289.877 41.3147 299.087 39.6524 309.577 39.6524C323.478 39.6524 334.522 42.4655 342.709 48.0918C350.896 53.718 355.544 61.5606 356.653 71.6196H339.767C337.976 66.1639 334.565 61.9442 329.533 58.9606C324.501 55.977 317.849 54.4852 309.577 54.4852C298.831 54.4852 290.303 56.9573 283.992 61.9016C277.681 66.7606 274.526 73.7508 274.526 82.8721C274.526 91.9934 277.681 99.0262 283.992 103.97C290.303 108.915 298.831 111.387 309.577 111.387C317.764 111.387 324.373 109.895 329.405 106.911C334.437 103.928 337.891 99.7082 339.767 94.2524H356.653Z" fill="#00071E"/>
<path d="M387.325 79.5475C388.945 74.3475 391.759 69.659 395.768 65.4819C399.776 61.2196 405.106 59.0885 411.758 59.0885V74.177C405.106 74.177 399.819 75.7967 395.896 79.036C391.973 82.2754 389.116 85.7278 387.325 89.3934V124.046H370.695V60.495H387.325V79.5475Z" fill="#00071E"/>
<path d="M495.617 102.947C494.508 109.767 490.841 115.266 484.615 119.443C478.475 123.534 470.202 125.58 459.798 125.58C451.611 125.58 444.404 124.259 438.179 121.616C431.953 118.974 427.092 115.18 423.595 110.236C420.184 105.292 418.478 99.3672 418.478 92.4623C418.478 85.5573 420.141 79.5901 423.467 74.5606C426.879 69.5311 431.654 65.695 437.795 63.0524C443.935 60.4098 451.099 59.0885 459.286 59.0885C471.908 59.0885 481.289 62.0721 487.429 68.0393C493.655 73.9213 496.469 82.8721 495.872 94.8918H435.236C435.919 100.347 438.349 104.738 442.528 108.062C446.792 111.302 452.421 112.921 459.414 112.921C464.616 112.921 469.008 112.026 472.59 110.236C476.172 108.361 478.475 105.931 479.498 102.947H495.617ZM458.519 71.6196C452.634 71.6196 447.688 72.9409 443.679 75.5836C439.756 78.1409 437.24 81.5082 436.132 85.6852H479.37C478.944 81.3377 476.897 77.9278 473.23 75.4557C469.563 72.8983 464.659 71.6196 458.519 71.6196Z" fill="#00071E"/>
<path d="M585.641 34.9213V124.046H570.162C569.395 117.908 569.011 112.452 569.011 107.679V103.715C567.05 110.108 563.553 115.351 558.521 119.443C553.575 123.449 547.136 125.452 539.205 125.452C532.808 125.452 527.009 124.088 521.807 121.361C516.69 118.548 512.639 114.626 509.654 109.597C506.669 104.567 505.177 98.8131 505.177 92.3344C505.177 85.7705 506.627 79.9737 509.526 74.9442C512.426 69.9147 516.434 66.036 521.551 63.3082C526.753 60.495 532.638 59.0885 539.205 59.0885C547.392 59.0885 553.916 60.8786 558.777 64.459C563.723 68.0393 567.135 73.0262 569.011 79.4196V34.9213H585.641ZM544.577 112.666C552.082 112.666 558.01 110.833 562.359 107.167C566.794 103.416 569.011 98.4721 569.011 92.3344C569.011 85.8557 566.836 80.8262 562.487 77.2459C558.137 73.6655 552.168 71.8754 544.577 71.8754C537.584 71.8754 532.084 73.7508 528.075 77.5016C524.152 81.1672 522.191 86.1114 522.191 92.3344C522.191 98.4721 524.238 103.416 528.331 107.167C532.425 110.833 537.84 112.666 544.577 112.666Z" fill="#00071E"/>
<path d="M622.626 47.1967H603.31V32.6196H622.626V47.1967ZM621.347 60.495V124.046H604.717V60.495H621.347Z" fill="#00071E"/>
<path d="M682.441 73.1541H666.066V124.046H649.436V73.1541H633.062V60.495H649.436V43.1049H666.066V60.495H682.441V73.1541Z" fill="#00071E"/>
<path d="M731.387 48.3475C727.293 48.2622 724.266 48.9868 722.304 50.5213C720.428 52.0557 719.49 54.9114 719.49 59.0885V61.6459H739.702V74.3049H719.49V124.046H702.86V74.3049H688.404V61.6459H702.86V57.0426C702.86 49.4557 704.906 43.8721 709 40.2918C713.094 36.7114 719.191 34.9213 727.293 34.9213H740.597V48.3475H731.387Z" fill="#00071E"/>
<path d="M822 60.495L777.994 149.62H760.724L774.668 123.407L744.222 60.495H761.876L782.983 107.039L804.219 60.495H822Z" fill="#00071E"/>
<path d="M83.6337 91.8573C83.7617 87.8072 87.056 84.5098 91.103 84.3788C95.5767 84.2325 99.2337 87.8864 99.0905 92.3571C98.9625 96.4072 95.6621 99.7045 91.615 99.8325C87.1474 99.9727 83.4965 96.3249 83.6367 91.8573H83.6337Z" fill="url(#paint0_linear_292_959)"/>
<path d="M61.3776 69.626H164.772L161.481 98.0589L158.272 125.754C158.053 127.641 156.453 129.064 154.551 129.064H58.6958C56.4559 129.064 54.7158 127.114 54.9748 124.889L57.2574 105.16H91.3648C94.9699 105.16 98.2307 103.697 100.596 101.338C102.96 98.9732 104.42 95.7124 104.42 92.1042C104.42 84.8938 98.5751 79.0518 91.3648 79.0518H60.2835L61.3745 69.626H61.3776Z" fill="url(#paint1_linear_292_959)"/>
<path d="M166.31 56.3479L165.673 61.8334H62.2812L63.0157 55.4855C63.2382 53.596 64.835 52.1729 66.7397 52.1729H162.592C164.832 52.1729 166.572 54.1232 166.313 56.3479H166.31Z" fill="url(#paint2_linear_292_959)"/>
<path d="M157.35 154.848L132.011 180.188C131.337 180.862 130.426 181.24 129.475 181.24H90.6198C62.6866 181.24 37.7034 168.602 21.0825 148.729C7.9204 132.992 0 112.729 0 90.6198C0 68.5104 7.9204 48.2446 21.0825 32.5105C37.7034 12.6379 62.6866 0 90.6198 0H166.408C169.601 0 171.201 3.86116 168.943 6.11934L151.533 23.5296L143.6 31.4622C142.927 32.1357 142.016 32.5135 141.065 32.5135H91.1988C59.0266 32.5135 32.5288 58.4141 32.5105 90.5863C32.5014 105.074 37.7948 118.324 46.5533 128.506C57.2073 140.891 72.9993 148.732 90.6168 148.732H154.812C158.006 148.732 159.606 152.593 157.347 154.852L157.35 154.848Z" fill="url(#paint3_linear_292_959)"/>
<defs>
<linearGradient id="paint0_linear_292_959" x1="88.026" y1="84.8425" x2="94.9648" y2="98.7562" gradientUnits="userSpaceOnUse">
<stop stop-color="#FF7A00"/>
<stop offset="1" stop-color="#FFC58F"/>
</linearGradient>
<linearGradient id="paint1_linear_292_959" x1="86.1536" y1="71.4249" x2="102.956" y2="133.679" gradientUnits="userSpaceOnUse">
<stop stop-color="#FF7A00"/>
<stop offset="1" stop-color="#FFC58F"/>
</linearGradient>
<linearGradient id="paint2_linear_292_959" x1="91.8473" y1="52.4652" x2="92.3488" y2="63.2973" gradientUnits="userSpaceOnUse">
<stop stop-color="#FF7A00"/>
<stop offset="1" stop-color="#FFC58F"/>
</linearGradient>
<linearGradient id="paint3_linear_292_959" x1="48.3025" y1="5.48546" x2="132.718" y2="164.259" gradientUnits="userSpaceOnUse">
<stop stop-color="#FF7A00"/>
<stop offset="1" stop-color="#FFC58F"/>
</linearGradient>
</defs>
</svg>
