<svg width="25" height="25" viewBox="0 0 25 25" fill="none" xmlns="http://www.w3.org/2000/svg">
<g clip-path="url(#clip0_16_9722)">
<path d="M20.1388 15.2779C19.3513 15.2785 18.5756 15.4708 17.879 15.8381C17.1823 16.2054 16.5854 16.7368 16.1399 17.3862L9.35968 14.3248C9.84125 13.1619 9.84313 11.8557 9.36489 10.6914L16.1357 7.61435C16.796 8.56931 17.7767 9.25598 18.8999 9.54982C20.0231 9.84365 21.2144 9.72519 22.2577 9.21592C23.3011 8.70664 24.1273 7.84029 24.5866 6.77401C25.0459 5.70772 25.1078 4.51214 24.7611 3.40412C24.4144 2.2961 23.682 1.34904 22.6969 0.734723C21.7117 0.120409 20.539 -0.120467 19.3915 0.0557863C18.244 0.23204 17.1976 0.81375 16.4422 1.6954C15.6868 2.57705 15.2725 3.70023 15.2743 4.86123C15.2787 5.13602 15.3066 5.40993 15.3576 5.67998L8.15968 8.95081C7.46837 8.30312 6.60292 7.87147 5.66965 7.7089C4.73639 7.54632 3.77596 7.65989 2.90636 8.03566C2.03675 8.41143 1.29585 9.03304 0.774677 9.82411C0.253501 10.6152 -0.0252506 11.5413 -0.027332 12.4886C-0.0294134 13.4359 0.245266 14.3632 0.762961 15.1565C1.28066 15.9499 2.01882 16.5747 2.88676 16.9543C3.7547 17.3339 4.71463 17.4517 5.6486 17.2932C6.58257 17.1348 7.4499 16.7069 8.14406 16.0623L15.3607 19.3206C15.3106 19.5904 15.2831 19.8639 15.2784 20.1383C15.2782 21.0999 15.5632 22.04 16.0973 22.8396C16.6314 23.6392 17.3906 24.2625 18.279 24.6306C19.1674 24.9986 20.1449 25.095 21.0881 24.9075C22.0312 24.7199 22.8975 24.2569 23.5775 23.5769C24.2574 22.897 24.7204 22.0307 24.908 21.0875C25.0955 20.1444 24.9992 19.1668 24.6311 18.2785C24.263 17.3901 23.6397 16.6309 22.8401 16.0968C22.0405 15.5627 21.1004 15.2777 20.1388 15.2779ZM20.1388 2.0831C20.6884 2.0829 21.2256 2.24566 21.6826 2.5508C22.1396 2.85593 22.4958 3.28975 22.7062 3.79736C22.9167 4.30498 22.9718 4.8636 22.8648 5.40258C22.7577 5.94155 22.4932 6.43666 22.1047 6.82529C21.7162 7.21392 21.2212 7.47862 20.6823 7.5859C20.1433 7.69318 19.5847 7.63822 19.077 7.42798C18.5693 7.21774 18.1353 6.86166 17.83 6.40478C17.5247 5.9479 17.3618 5.41073 17.3618 4.86123C17.3623 4.12477 17.655 3.41862 18.1757 2.89777C18.6964 2.37692 19.4024 2.08393 20.1388 2.0831ZM4.86176 15.2779C4.31226 15.2781 3.77503 15.1153 3.31804 14.8102C2.86104 14.5051 2.5048 14.0713 2.29437 13.5636C2.08394 13.056 2.02877 12.4974 2.13585 11.9584C2.24293 11.4195 2.50744 10.9243 2.89592 10.5357C3.28441 10.1471 3.77942 9.88238 4.31835 9.7751C4.85729 9.66782 5.41593 9.72278 5.92362 9.93302C6.43132 10.1433 6.86527 10.4993 7.17058 10.9562C7.47589 11.4131 7.63885 11.9503 7.63885 12.4998C7.63802 13.2361 7.3452 13.9421 6.82461 14.4629C6.30401 14.9837 5.59813 15.2768 4.86176 15.2779ZM20.1388 22.9164C19.5894 22.9164 19.0523 22.7535 18.5954 22.4482C18.1385 22.143 17.7825 21.7091 17.5722 21.2015C17.3619 20.6938 17.3069 20.1352 17.4141 19.5963C17.5213 19.0574 17.7859 18.5624 18.1744 18.1739C18.5629 17.7854 19.058 17.5208 19.5969 17.4136C20.1358 17.3064 20.6944 17.3614 21.202 17.5717C21.7096 17.7819 22.1435 18.138 22.4488 18.5949C22.754 19.0517 22.917 19.5889 22.917 20.1383C22.9164 20.8749 22.6236 21.5813 22.1027 22.1021C21.5818 22.623 20.8755 22.9159 20.1388 22.9164Z" fill="#00071E"/>
</g>
<defs>
<clipPath id="clip0_16_9722">
<rect width="25" height="25" fill="white"/>
</clipPath>
</defs>
</svg>
